<?xml version="1.0" encoding="iso-8859-1"?>
<!-- Generator: Adobe Illustrator 18.0.0, SVG Export Plug-In . SVG Version: 6.00 Build 0)  -->
<!DOCTYPE svg PUBLIC "-//W3C//DTD SVG 1.1//EN" "http://www.w3.org/Graphics/SVG/1.1/DTD/svg11.dtd">
<svg version="1.1" id="Capa_1" xmlns="http://www.w3.org/2000/svg" xmlns:xlink="http://www.w3.org/1999/xlink" x="0px" y="0px"
	 viewBox="0 0 303 303" style="enable-background:new 0 0 303 303;" xml:space="preserve">
<g>
	<g>
		<path style="fill:#ECA684;" d="M231.35,148.767c-0.807,0-1.626-0.164-2.411-0.509c-3.033-1.333-4.412-4.873-3.079-7.907
			l20.637-46.965c7.074-16.101,23.008-26.504,40.595-26.504H297c3.313,0,6,2.687,6,6s-2.687,6-6,6h-9.909
			c-12.827,0-24.449,7.588-29.608,19.331l-20.637,46.966C235.857,147.427,233.657,148.767,231.35,148.767z"/>
	</g>
	<g>
		<g>
			<path style="fill:#ECA684;" d="M0,125.294C0,67.402,46.931,20.471,104.824,20.471l0,104.824L0,125.294z"/>
		</g>
	</g>
	<g style="opacity:0.6;">
		<path style="fill:#BDC3C7;" d="M32.893,124.206c0-46.402,30.152-85.755,71.93-99.552v-4.184C46.931,20.471,0,67.402,0,125.294
			l104.824,0v-1.088L32.893,124.206z"/>
	</g>
	<g>
		<g>
			<path style="fill:#998272;" d="M205.255,230.118H39.333C17.61,230.118,0,212.507,0,190.784v-65.49h244.588v65.49
				C244.588,212.507,226.978,230.118,205.255,230.118z"/>
		</g>
	</g>
	<g style="opacity:0.6;">
		<path style="fill:#BDC3C7;" d="M228.142,125.294v51.164c0,21.653-17.553,39.206-39.206,39.206H22.76
			c-5.941,0-11.57-1.329-16.616-3.694c6.962,10.907,19.163,18.147,33.063,18.147h166.176c21.653,0,39.206-17.553,39.206-39.206
			v-65.617H228.142z"/>
	</g>
	<g>
		<g>
			<circle style="fill:#F3F3E9;" cx="52.412" cy="247.588" r="34.941"/>
		</g>
	</g>
	<g>
		<g>
			<circle style="fill:#F3F3E9;" cx="192.176" cy="247.588" r="34.941"/>
		</g>
	</g>
	<g>
		<circle style="fill:#998272;" cx="192.176" cy="247.588" r="12.831"/>
	</g>
	<g>
		<circle style="fill:#998272;" cx="52.956" cy="247.588" r="12.831"/>
	</g>
	<g style="opacity:0.6;">
		<path style="fill:#BDC3C7;" d="M68.7,216.676c3.38,5.379,5.342,11.739,5.342,18.561c0,19.298-15.644,34.941-34.941,34.941
			c-5.883,0-11.423-1.461-16.288-4.029c6.182,9.837,17.123,16.38,29.599,16.38c19.297,0,34.941-15.644,34.941-34.941
			C87.353,234.174,79.79,222.532,68.7,216.676z"/>
	</g>
	<g style="opacity:0.6;">
		<path style="fill:#BDC3C7;" d="M208.464,216.676c3.38,5.379,5.342,11.739,5.342,18.561c0,19.298-15.644,34.941-34.941,34.941
			c-5.883,0-11.423-1.461-16.288-4.029c6.182,9.837,17.123,16.38,29.599,16.38c19.297,0,34.941-15.644,34.941-34.941
			C227.118,234.174,219.555,222.532,208.464,216.676z"/>
	</g>
</g>
<g>
</g>
<g>
</g>
<g>
</g>
<g>
</g>
<g>
</g>
<g>
</g>
<g>
</g>
<g>
</g>
<g>
</g>
<g>
</g>
<g>
</g>
<g>
</g>
<g>
</g>
<g>
</g>
<g>
</g>
</svg>
